<svg width="111" height="102" viewBox="0 0 111 102" fill="none" xmlns="http://www.w3.org/2000/svg">
<g filter="url(#filter0_d_1605_833)">
<path d="M4.32251 18.7437C4.32251 13.2208 8.79966 8.74365 14.3225 8.74365H87.489C93.0119 8.74365 97.489 13.2208 97.489 18.7437V83.6451C97.489 89.168 93.0119 93.6451 87.489 93.6451H14.3225C8.79967 93.6451 4.32251 89.168 4.32251 83.6451V18.7437Z" fill="#E6E6E6"/>
<path d="M4.82251 18.7437C4.82251 13.497 9.07581 9.24365 14.3225 9.24365H87.489C92.7357 9.24365 96.989 13.4969 96.989 18.7437V83.6451C96.989 88.8918 92.7357 93.1451 87.489 93.1451H14.3225C9.07581 93.1451 4.82251 88.8918 4.82251 83.6451V18.7437Z" stroke="#0C29B0"/>
</g>
<path d="M4.82251 18.7437C4.82251 13.497 9.07581 9.24365 14.3225 9.24365H87.489C92.7357 9.24365 96.989 13.4969 96.989 18.7437V26.8806H4.82251V18.7437Z" fill="#0C29B0" stroke="#0C29B0"/>
<rect x="16.974" y="38.2344" width="10.1395" height="10.3892" fill="#0C29B0" stroke="#0C29B0"/>
<rect x="73.6841" y="38.2344" width="10.1395" height="10.3892" fill="#0C29B0" stroke="#0C29B0"/>
<rect x="59.5065" y="38.2344" width="10.1395" height="10.3892" fill="#0C29B0" stroke="#0C29B0"/>
<rect x="45.329" y="38.2344" width="10.1395" height="10.3892" fill="#0C29B0" stroke="#0C29B0"/>
<rect x="31.1515" y="38.2344" width="10.1395" height="10.3892" fill="#0C29B0" stroke="#0C29B0"/>
<rect x="16.974" y="53.7651" width="10.1395" height="10.3892" fill="#0C29B0" stroke="#0C29B0"/>
<rect x="73.6841" y="53.7651" width="10.1395" height="10.3892" fill="#0C29B0" stroke="#0C29B0"/>
<rect x="59.5065" y="53.7651" width="10.1395" height="10.3892" fill="#0C29B0" stroke="#0C29B0"/>
<rect x="45.329" y="53.7651" width="10.1395" height="10.3892" fill="#0C29B0" stroke="#0C29B0"/>
<rect x="31.1515" y="53.7651" width="10.1395" height="10.3892" fill="#0C29B0" stroke="#0C29B0"/>
<rect x="16.974" y="69.2959" width="10.1395" height="10.3892" fill="#0C29B0" stroke="#0C29B0"/>
<rect x="73.6841" y="69.2959" width="10.1395" height="10.3892" fill="#0C29B0" stroke="#0C29B0"/>
<rect x="59.5065" y="69.2959" width="10.1395" height="10.3892" fill="#0C29B0" stroke="#0C29B0"/>
<rect x="45.329" y="69.2959" width="10.1395" height="10.3892" fill="#0C29B0" stroke="#0C29B0"/>
<rect x="31.1515" y="69.2959" width="10.1395" height="10.3892" fill="#0C29B0" stroke="#0C29B0"/>
<rect x="25.0764" y="0.960449" width="5.07608" height="14.5308" rx="2.53804" fill="url(#paint0_linear_1605_833)" stroke="#0C29B0"/>
<rect x="70.6467" y="0.960449" width="5.07607" height="14.5308" rx="2.53804" fill="url(#paint1_linear_1605_833)" stroke="#0C29B0"/>
<path d="M110.154 80.185C110.154 91.8954 100.199 101.428 87.8687 101.428C75.5386 101.428 65.5834 91.8954 65.5834 80.185C65.5834 68.4745 75.5386 58.9419 87.8687 58.9419C100.199 58.9419 110.154 68.4745 110.154 80.185Z" fill="#0C29B0" stroke="#0C29B0"/>
<path d="M108.129 80.185C108.129 90.7485 99.0838 99.3573 87.8688 99.3573C76.6539 99.3573 67.6089 90.7485 67.6089 80.185C67.6089 69.6214 76.6539 61.0127 87.8688 61.0127C99.0838 61.0127 108.129 69.6214 108.129 80.185Z" fill="#0C29B0" stroke="#0C29B0"/>
<path d="M105.09 80.1848C105.09 89.0399 97.6248 96.2509 88.3747 96.2509C79.1247 96.2509 71.6592 89.0399 71.6592 80.1848C71.6592 71.3297 79.1247 64.1187 88.3747 64.1187C97.6248 64.1187 105.09 71.3297 105.09 80.1848Z" fill="#E6E6E6" stroke="#0C29B0"/>
<path d="M89.901 80.185C89.901 81.063 89.2077 81.7558 88.3756 81.7558C87.5436 81.7558 86.8503 81.063 86.8503 80.185C86.8503 79.307 87.5436 78.6143 88.3756 78.6143C89.2077 78.6143 89.901 79.307 89.901 80.185Z" fill="#0C29B0" stroke="#0C29B0"/>
<path d="M88.6909 68.4755C88.5141 68.3008 88.2292 68.3025 88.0545 68.4793L85.2072 71.3602C85.0324 71.537 85.0341 71.8219 85.2108 71.9966C85.3875 72.1713 85.6725 72.1696 85.8472 71.9928L88.3781 69.432L90.9383 71.9623C91.115 72.137 91.3999 72.1353 91.5746 71.9585C91.7494 71.7817 91.7477 71.4968 91.571 71.3221L88.6909 68.4755ZM88.8898 80.1819L88.8245 68.7929L87.9245 68.7983L87.9898 80.1873L88.8898 80.1819Z" fill="#0C29B0"/>
<path d="M97.8441 80.5372C98.0386 80.3412 98.0375 80.0246 97.8415 79.8301L94.6478 76.6604C94.4518 76.4659 94.1352 76.4671 93.9407 76.6632C93.7461 76.8592 93.7473 77.1757 93.9433 77.3703L96.7821 80.1877L93.9642 83.0271C93.7696 83.2231 93.7708 83.5397 93.9668 83.7342C94.1628 83.9287 94.4794 83.9275 94.6739 83.7314L97.8441 80.5372ZM88.377 80.7202L97.4911 80.685L97.4874 79.685L88.3733 79.7202L88.377 80.7202Z" fill="#0C29B0"/>
<defs>
<filter id="filter0_d_1605_833" x="0.32251" y="5.74365" width="101.167" height="92.9014" filterUnits="userSpaceOnUse" color-interpolation-filters="sRGB">
<feFlood flood-opacity="0" result="BackgroundImageFix"/>
<feColorMatrix in="SourceAlpha" type="matrix" values="0 0 0 0 0 0 0 0 0 0 0 0 0 0 0 0 0 0 127 0" result="hardAlpha"/>
<feOffset dy="1"/>
<feGaussianBlur stdDeviation="2"/>
<feComposite in2="hardAlpha" operator="out"/>
<feColorMatrix type="matrix" values="0 0 0 0 0 0 0 0 0 0 0 0 0 0 0 0 0 0 0.25 0"/>
<feBlend mode="normal" in2="BackgroundImageFix" result="effect1_dropShadow_1605_833"/>
<feBlend mode="normal" in="SourceGraphic" in2="effect1_dropShadow_1605_833" result="shape"/>
</filter>
<linearGradient id="paint0_linear_1605_833" x1="27.6144" y1="0.460449" x2="27.6144" y2="15.9912" gradientUnits="userSpaceOnUse">
<stop stop-color="#888888"/>
<stop offset="1" stop-color="white"/>
</linearGradient>
<linearGradient id="paint1_linear_1605_833" x1="73.1848" y1="0.460449" x2="73.1848" y2="15.9912" gradientUnits="userSpaceOnUse">
<stop stop-color="#888888"/>
<stop offset="1" stop-color="white"/>
</linearGradient>
</defs>
</svg>
