<svg width="118" height="114" viewBox="0 0 118 114" fill="none" xmlns="http://www.w3.org/2000/svg">
<g filter="url(#filter0_d_1605_866)">
<path d="M47.1009 26.4109L4.58971 65.1651C1.00982 71.1482 5.08692 76.7234 7.57296 78.7632L35.9138 103.919C43.0736 108.815 49.3384 105.959 51.5758 103.919L92.5954 66.525C95.5786 63.8054 96.8217 57.6863 97.0703 54.9667V31.1702C97.0703 25.1871 90.6066 22.3315 87.3747 21.6516H62.0172C56.6473 21.1077 49.8356 24.5978 47.1009 26.4109Z" fill="#0C29B0"/>
<path d="M47.1009 26.4109L4.58971 65.1651C1.00982 71.1482 5.08692 76.7234 7.57296 78.7632L35.9138 103.919C43.0736 108.815 49.3384 105.959 51.5758 103.919L92.5954 66.525C95.5786 63.8054 96.8217 57.6863 97.0703 54.9667V31.1702C97.0703 25.1871 90.6066 22.3315 87.3747 21.6516H62.0172C56.6473 21.1077 49.8356 24.5978 47.1009 26.4109Z" stroke="#0C29B0"/>
</g>
<path d="M87.7028 38.5921C87.7028 43.1549 83.6304 46.9308 78.5073 46.9308C73.3842 46.9308 69.3117 43.1549 69.3117 38.5921C69.3117 34.0293 73.3842 30.2534 78.5073 30.2534C83.6304 30.2534 87.7028 34.0293 87.7028 38.5921Z" fill="white" stroke="#0C29B0"/>
<g filter="url(#filter1_d_1605_866)">
<path d="M82.2363 42.466C82.2363 23.2545 86.2372 -10.0787 102.241 10.2805C118.244 30.6397 107.575 41.7174 100.24 44.7114" stroke="#0C29B0" stroke-width="2"/>
</g>
<path d="M64.3394 46.5531L60.4775 50.272L58.4814 48.5493L62.3432 44.8304L64.3394 46.5531ZM43.4232 66.2576L40.0425 69.5132L38.0596 67.802L41.4403 64.5464L43.4232 66.2576ZM50.0858 64.7016C50.5923 64.2138 50.9284 63.6715 51.094 63.0746C51.2596 62.4777 51.2362 61.7794 51.0238 60.9795C50.8114 60.1797 50.3874 59.2434 49.7517 58.1708C48.9631 56.8891 48.397 55.6684 48.0535 54.5088C47.7189 53.3569 47.6801 52.2521 47.9371 51.1946C48.203 50.1448 48.834 49.1403 49.8301 48.1811C50.8683 47.1813 51.9982 46.5225 53.2197 46.2049C54.4411 45.8872 55.6847 45.9046 56.9505 46.2571C58.2162 46.6096 59.4302 47.2873 60.5924 48.2903C61.4973 49.0713 62.1738 49.894 62.6219 50.7585C63.0784 51.6149 63.2974 52.4975 63.2789 53.4063C63.2692 54.3228 63.0258 55.2456 62.5487 56.1749C62.0805 57.1118 61.3652 58.0435 60.403 58.9702L57.9543 56.857C58.5199 56.3124 58.9681 55.7513 59.2988 55.1735C59.6296 54.5958 59.826 54.0178 59.8882 53.4396C59.9589 52.8531 59.883 52.2944 59.6606 51.7634C59.4466 51.2242 59.0735 50.725 58.5412 50.2656C57.796 49.6225 57.057 49.2082 56.3242 49.0228C55.6004 48.8451 54.8994 48.8721 54.2214 49.1039C53.5518 49.3275 52.9257 49.7198 52.3433 50.2807C51.8031 50.8009 51.4457 51.3556 51.2712 51.9449C51.0967 52.5341 51.1198 53.2246 51.3407 54.0163C51.5788 54.8076 52.0297 55.7747 52.6933 56.9176C53.4916 58.2386 54.0537 59.4712 54.3795 60.6155C54.7137 61.7516 54.7474 62.8288 54.4806 63.8471C54.2223 64.8573 53.5909 65.846 52.5864 66.8133C51.4975 67.8619 50.3201 68.5259 49.0543 68.8053C47.7969 69.0765 46.5083 68.9972 45.1884 68.5672C43.8686 68.1372 42.5832 67.3824 41.3323 66.3028C40.5782 65.652 39.9301 64.9154 39.3878 64.093C38.8456 63.2705 38.4968 62.3915 38.3413 61.4558C38.1943 60.512 38.3063 59.5375 38.6774 58.5321C39.0569 57.5187 39.7784 56.4998 40.842 55.4756L43.3173 57.6118C42.5998 58.3027 42.1111 58.9677 41.8513 59.6066C41.6089 60.2451 41.5302 60.8554 41.6154 61.4376C41.709 62.0116 41.9141 62.5431 42.2307 63.0321C42.5645 63.5206 42.9488 63.9524 43.3835 64.3276C44.182 65.0166 44.9744 65.4847 45.7608 65.7318C46.5645 65.9784 47.3365 66.0127 48.0766 65.8345C48.8168 65.6564 49.4865 65.2787 50.0858 64.7016Z" fill="#E6E6E6"/>
<path d="M64.3394 46.5531L65.0964 47.2065L65.8167 46.5128L65.0597 45.8595L64.3394 46.5531ZM60.4775 50.272L59.7572 50.9657L60.5143 51.619L61.2346 50.9254L60.4775 50.272ZM58.4814 48.5493L57.7243 47.896L57.004 48.5896L57.7611 49.243L58.4814 48.5493ZM62.3432 44.8304L63.0635 44.1368L62.3065 43.4834L61.5862 44.1771L62.3432 44.8304ZM43.4232 66.2576L44.1802 66.911L44.9005 66.2173L44.1435 65.564L43.4232 66.2576ZM40.0425 69.5132L39.3222 70.2068L40.0792 70.8602L40.7995 70.1665L40.0425 69.5132ZM38.0596 67.802L37.3026 67.1486L36.5823 67.8423L37.3393 68.4956L38.0596 67.802ZM41.4403 64.5464L42.1606 63.8528L41.4036 63.1994L40.6833 63.8931L41.4403 64.5464ZM49.7517 58.1708L50.6716 57.7145L50.6677 57.7079L50.6637 57.7013L49.7517 58.1708ZM48.0535 54.5088L47.0433 54.7571L47.0446 54.7616L48.0535 54.5088ZM47.9371 51.1946L46.919 50.9847L46.917 50.9929L47.9371 51.1946ZM62.6219 50.7585L61.6766 51.1692L61.6816 51.1786L62.6219 50.7585ZM63.2789 53.4063L62.234 53.3934L62.2339 53.402L63.2789 53.4063ZM62.5487 56.1749L61.6027 55.7744L61.5982 55.7833L62.5487 56.1749ZM60.403 58.9702L59.6826 59.6639L60.4397 60.3172L61.16 59.6236L60.403 58.9702ZM57.9543 56.857L57.1973 56.2037L56.477 56.8973L57.234 57.5507L57.9543 56.857ZM59.8882 53.4396L58.8494 53.3402L58.8482 53.3513L59.8882 53.4396ZM59.6606 51.7634L58.6778 52.0916L58.6809 52.0995L58.6841 52.1073L59.6606 51.7634ZM56.3242 49.0228L56.6083 48.1045L56.6006 48.1026L56.3242 49.0228ZM54.2214 49.1039L54.5764 49.9985L54.5838 49.996L54.2214 49.1039ZM51.3407 54.0163L50.3279 54.2556L50.3303 54.2642L50.3329 54.2728L51.3407 54.0163ZM52.6933 56.9176L51.7692 57.3668L51.7733 57.3738L51.7775 57.3808L52.6933 56.9176ZM54.3795 60.6155L53.3679 60.8593L53.3701 60.8667L54.3795 60.6155ZM54.4806 63.8471L53.4643 63.6301L53.463 63.6352L54.4806 63.8471ZM49.0543 68.8053L49.29 69.7325L49.2953 69.7314L49.0543 68.8053ZM38.3413 61.4558L37.3067 61.5945L37.3081 61.6032L38.3413 61.4558ZM38.6774 58.5321L37.6886 58.2283L37.6872 58.2323L38.6774 58.5321ZM40.842 55.4756L41.5623 54.782L40.8053 54.1286L40.085 54.8223L40.842 55.4756ZM43.3173 57.6118L44.0743 58.2651L44.7946 57.5715L44.0376 56.9181L43.3173 57.6118ZM41.8513 59.6066L40.8717 59.2793L40.8678 59.2891L40.8641 59.2989L41.8513 59.6066ZM41.6154 61.4376L40.5796 61.5683L40.5806 61.5754L40.5818 61.5824L41.6154 61.4376ZM42.2307 63.0321L41.3301 63.5195L41.3364 63.5293L41.343 63.539L42.2307 63.0321ZM45.7608 65.7318L45.4159 66.6329L45.4231 66.6351L45.7608 65.7318ZM63.5823 45.8998L59.7205 49.6187L61.2346 50.9254L65.0964 47.2065L63.5823 45.8998ZM61.1978 49.5784L59.2017 47.8557L57.7611 49.243L59.7572 50.9657L61.1978 49.5784ZM59.2384 49.2027L63.1003 45.4838L61.5862 44.1771L57.7243 47.896L59.2384 49.2027ZM61.6229 45.5241L63.6191 47.2468L65.0597 45.8595L63.0635 44.1368L61.6229 45.5241ZM42.6661 65.6043L39.2854 68.8598L40.7995 70.1665L44.1802 66.911L42.6661 65.6043ZM40.7628 68.8195L38.78 67.1083L37.3393 68.4956L39.3222 70.2068L40.7628 68.8195ZM38.8167 68.4553L42.1974 65.1998L40.6833 63.8931L37.3026 67.1486L38.8167 68.4553ZM40.72 65.2401L42.7029 66.9513L44.1435 65.564L42.1606 63.8528L40.72 65.2401ZM50.8429 65.3549C51.4617 64.759 51.8934 64.0737 52.107 63.304L50.081 62.8453C49.9633 63.2693 49.7229 63.6687 49.3288 64.0482L50.8429 65.3549ZM52.107 63.304C52.3261 62.5144 52.2789 61.6521 52.0395 60.7508L50.0081 61.2082C50.1936 61.9066 50.1932 62.4411 50.081 62.8453L52.107 63.304ZM52.0395 60.7508C51.7986 59.8434 51.3315 58.8279 50.6716 57.7145L48.8318 58.6271C49.4433 59.659 49.8243 60.5159 50.0081 61.2082L52.0395 60.7508ZM50.6637 57.7013C49.908 56.4732 49.3792 55.3253 49.0625 54.256L47.0446 54.7616C47.4149 56.0115 48.0182 57.3049 48.8398 58.6402L50.6637 57.7013ZM49.0638 54.2605C48.7674 53.2401 48.74 52.2903 48.9573 51.3964L46.917 50.9929C46.6202 52.214 46.6704 53.4736 47.0433 54.7571L49.0638 54.2605ZM48.9553 51.4046C49.1706 50.5546 49.6911 49.6973 50.5871 48.8344L49.073 47.5277C47.9769 48.5833 47.2355 49.735 46.919 50.9847L48.9553 51.4046ZM50.5871 48.8344C51.5201 47.936 52.4928 47.3835 53.5016 47.1211L52.9378 45.2886C51.5037 45.6616 50.2165 46.4266 49.073 47.5277L50.5871 48.8344ZM53.5016 47.1211C54.5202 46.8562 55.5582 46.8671 56.6407 47.1686L57.2603 45.3456C55.8113 44.9421 54.3621 44.9182 52.9378 45.2886L53.5016 47.1211ZM56.6407 47.1686C57.7239 47.4702 58.8022 48.0606 59.8721 48.984L61.3127 47.5967C60.0582 46.514 58.7086 45.749 57.2603 45.3456L56.6407 47.1686ZM59.8721 48.984C60.7007 49.6991 61.293 50.429 61.6767 51.1692L63.5671 50.3478C63.0546 49.359 62.2939 48.4435 61.3127 47.5967L59.8721 48.984ZM61.6816 51.1786C62.07 51.9072 62.2494 52.6421 62.2341 53.3934L64.3237 53.4192C64.3454 52.3529 64.0868 51.3225 63.5622 50.3384L61.6816 51.1786ZM62.2339 53.402C62.2259 54.1663 62.0236 54.9547 61.6027 55.7744L63.4947 56.5753C64.0281 55.5366 64.3125 54.4792 64.3238 53.4106L62.2339 53.402ZM61.5982 55.7833C61.1881 56.604 60.5466 57.4495 59.6459 58.3169L61.16 59.6236C62.1839 58.6376 62.9729 57.6195 63.4993 56.5664L61.5982 55.7833ZM61.1233 58.2766L58.6747 56.1634L57.234 57.5507L59.6826 59.6639L61.1233 58.2766ZM58.7114 57.5104C59.3341 56.9108 59.8427 56.2783 60.2246 55.6112L58.373 54.7359C58.0934 55.2242 57.7057 55.7141 57.1973 56.2037L58.7114 57.5104ZM60.2246 55.6112C60.6102 54.9377 60.8514 54.2418 60.9282 53.5278L58.8482 53.3513C58.8007 53.7938 58.6489 54.254 58.373 54.7359L60.2246 55.6112ZM60.927 53.5389C61.015 52.8077 60.9206 52.0966 60.637 51.4195L58.6841 52.1073C58.8454 52.4923 58.9027 52.8986 58.8495 53.3402L60.927 53.5389ZM60.6434 51.4352C60.3659 50.7357 59.8918 50.1159 59.2615 49.5719L57.8209 50.9592C58.2552 51.3341 58.5274 51.7128 58.6778 52.0916L60.6434 51.4352ZM59.2615 49.5719C58.4345 48.8582 57.5517 48.3432 56.6083 48.1045L56.0402 49.9411C56.5623 50.0732 57.1574 50.3867 57.8209 50.9592L59.2615 49.5719ZM56.6006 48.1026C55.6748 47.8753 54.75 47.9073 53.8589 48.2118L54.5838 49.996C55.0488 49.837 55.526 49.8149 56.0478 49.9431L56.6006 48.1026ZM53.8664 48.2093C53.0182 48.4926 52.2597 48.9787 51.5862 49.6273L53.1003 50.934C53.5917 50.4608 54.0853 50.1625 54.5764 49.9985L53.8664 48.2093ZM51.5862 49.6273C50.9469 50.243 50.4895 50.9339 50.2624 51.7008L52.2799 52.189C52.4018 51.7774 52.6592 51.3588 53.1003 50.934L51.5862 49.6273ZM50.2624 51.7008C50.0277 52.4934 50.0773 53.3575 50.3279 54.2556L52.3535 53.777C52.1623 53.0917 52.1656 52.5749 52.2799 52.189L50.2624 51.7008ZM50.3329 54.2728C50.5992 55.1577 51.0879 56.1934 51.7692 57.3668L53.6174 56.4685C52.9715 55.3559 52.5585 54.4574 52.3485 53.7598L50.3329 54.2728ZM51.7775 57.3808C52.545 58.6506 53.069 59.8092 53.3679 60.8593L55.391 60.3717C55.0384 59.1332 54.4383 57.8265 53.6091 56.4545L51.7775 57.3808ZM53.3701 60.8667C53.665 61.8695 53.6857 62.7849 53.4643 63.6301L55.4969 64.0641C55.809 62.8728 55.7623 61.6338 55.3889 60.3643L53.3701 60.8667ZM53.463 63.6352C53.2573 64.4393 52.7411 65.2819 51.8293 66.16L53.3434 67.4667C54.4407 66.4101 55.1872 65.2752 55.4982 64.0591L53.463 63.6352ZM51.8293 66.16C50.8499 67.1032 49.8433 67.6519 48.8133 67.8792L49.2953 69.7314C50.7969 69.4 52.1451 68.6207 53.3434 67.4667L51.8293 66.16ZM48.8186 67.878C47.7749 68.1032 46.6919 68.0435 45.5444 67.6696L44.8325 69.4647C46.3246 69.9508 47.8189 70.0499 49.29 69.7325L48.8186 67.878ZM45.5444 67.6696C44.3877 67.2928 43.2224 66.6187 42.0526 65.6092L40.612 66.9965C41.9441 68.1461 43.3495 68.9815 44.8325 69.4647L45.5444 67.6696ZM42.0526 65.6092C41.3678 65.0181 40.7785 64.3489 40.2842 63.599L38.4915 64.587C39.0816 65.482 39.7887 66.2859 40.612 66.9965L42.0526 65.6092ZM40.2842 63.599C39.8108 62.881 39.5093 62.1195 39.3745 61.3084L37.3081 61.6032C37.4843 62.6635 37.8804 63.66 38.4915 64.587L40.2842 63.599ZM39.3759 61.3171C39.2543 60.5361 39.3428 59.7119 39.6676 58.832L37.6872 58.2323C37.2698 59.363 37.1343 60.4879 37.3067 61.5945L39.3759 61.3171ZM39.6661 58.836C39.984 57.987 40.608 57.0833 41.5991 56.129L40.085 54.8223C38.9488 55.9163 38.1298 57.0503 37.6886 58.2283L39.6661 58.836ZM40.1217 56.1693L42.5969 58.3054L44.0376 56.9181L41.5623 54.782L40.1217 56.1693ZM42.5602 56.9584C41.7811 57.7087 41.1962 58.4814 40.8717 59.2793L42.8309 59.9339C43.0261 59.454 43.4185 58.8967 44.0743 58.2651L42.5602 56.9584ZM40.8641 59.2989C40.576 60.0573 40.4698 60.8183 40.5796 61.5683L42.6512 61.3069C42.5906 60.8926 42.6417 60.4329 42.8386 59.9144L40.8641 59.2989ZM40.5818 61.5824C40.6947 62.275 40.944 62.9231 41.3301 63.5195L43.1312 62.5446C42.8842 62.1631 42.7233 61.7483 42.649 61.2928L40.5818 61.5824ZM41.343 63.539C41.7212 64.0923 42.1608 64.5876 42.6632 65.0212L44.1038 63.6339C43.7368 63.3172 43.4079 62.9489 43.1183 62.5252L41.343 63.539ZM42.6632 65.0212C43.5361 65.7745 44.4521 66.33 45.4159 66.6329L46.1057 64.8307C45.4968 64.6394 44.8279 64.2588 44.1038 63.6339L42.6632 65.0212ZM45.4231 66.6351C46.3979 66.9342 47.379 66.9867 48.3386 66.7558L47.8147 64.9133C47.2939 65.0386 46.7311 65.0226 46.0986 64.8285L45.4231 66.6351ZM48.3386 66.7558C49.2926 66.5261 50.1279 66.0434 50.8429 65.3549L49.3288 64.0482C48.8451 64.514 48.3409 64.7866 47.8147 64.9133L48.3386 66.7558Z" fill="#0C29B0"/>
<defs>
<filter id="filter0_d_1605_866" x="0.680546" y="19.0947" width="102.89" height="94.0283" filterUnits="userSpaceOnUse" color-interpolation-filters="sRGB">
<feFlood flood-opacity="0" result="BackgroundImageFix"/>
<feColorMatrix in="SourceAlpha" type="matrix" values="0 0 0 0 0 0 0 0 0 0 0 0 0 0 0 0 0 0 127 0" result="hardAlpha"/>
<feOffset dx="2" dy="2"/>
<feGaussianBlur stdDeviation="2"/>
<feComposite in2="hardAlpha" operator="out"/>
<feColorMatrix type="matrix" values="0 0 0 0 0 0 0 0 0 0 0 0 0 0 0 0 0 0 0.1 0"/>
<feBlend mode="normal" in2="BackgroundImageFix" result="effect1_dropShadow_1605_866"/>
<feBlend mode="normal" in="SourceGraphic" in2="effect1_dropShadow_1605_866" result="shape"/>
</filter>
<filter id="filter1_d_1605_866" x="79.2363" y="0.916992" width="38.3417" height="50.7202" filterUnits="userSpaceOnUse" color-interpolation-filters="sRGB">
<feFlood flood-opacity="0" result="BackgroundImageFix"/>
<feColorMatrix in="SourceAlpha" type="matrix" values="0 0 0 0 0 0 0 0 0 0 0 0 0 0 0 0 0 0 127 0" result="hardAlpha"/>
<feOffset dx="2" dy="2"/>
<feGaussianBlur stdDeviation="2"/>
<feComposite in2="hardAlpha" operator="out"/>
<feColorMatrix type="matrix" values="0 0 0 0 0 0 0 0 0 0 0 0 0 0 0 0 0 0 0.1 0"/>
<feBlend mode="normal" in2="BackgroundImageFix" result="effect1_dropShadow_1605_866"/>
<feBlend mode="normal" in="SourceGraphic" in2="effect1_dropShadow_1605_866" result="shape"/>
</filter>
</defs>
</svg>
