<svg width="116" height="112" viewBox="0 0 116 112" fill="none" xmlns="http://www.w3.org/2000/svg">
<g filter="url(#filter0_d_488_888)">
<ellipse cx="55.8788" cy="54.27" rx="53.6983" ry="51.3525" fill="#091E80"/>
</g>
<line x1="24.789" y1="80.1401" x2="88.3791" y2="80.1401" stroke="#E6E6E6"/>
<rect x="74.2502" y="32.0635" width="11.3049" height="48.5767" fill="#E6E6E6"/>
<rect x="60.1194" y="41.7788" width="11.3049" height="38.8614" fill="#E6E6E6"/>
<rect x="45.9875" y="51.4941" width="11.3049" height="29.146" fill="#E6E6E6"/>
<rect x="31.855" y="61.2095" width="11.3049" height="19.4307" fill="#E6E6E6"/>
<path d="M67.6771 29.3864C67.7308 29.1179 67.553 28.856 67.28 28.8014L62.8309 27.9117C62.5578 27.8571 62.293 28.0305 62.2393 28.299C62.1856 28.5676 62.3634 28.8295 62.6364 28.8841L66.5912 29.6749L65.8134 33.5646C65.7597 33.8331 65.9375 34.095 66.2105 34.1496C66.4835 34.2042 66.7484 34.0308 66.8021 33.7623L67.6771 29.3864ZM37.7882 49.132L67.4636 29.7013L66.902 28.8739L37.2266 48.3046L37.7882 49.132Z" fill="#E6E6E6"/>
<defs>
<filter id="filter0_d_488_888" x="0.180473" y="0.91748" width="115.397" height="110.705" filterUnits="userSpaceOnUse" color-interpolation-filters="sRGB">
<feFlood flood-opacity="0" result="BackgroundImageFix"/>
<feColorMatrix in="SourceAlpha" type="matrix" values="0 0 0 0 0 0 0 0 0 0 0 0 0 0 0 0 0 0 127 0" result="hardAlpha"/>
<feOffset dx="2" dy="2"/>
<feGaussianBlur stdDeviation="2"/>
<feComposite in2="hardAlpha" operator="out"/>
<feColorMatrix type="matrix" values="0 0 0 0 0 0 0 0 0 0 0 0 0 0 0 0 0 0 0.15 0"/>
<feBlend mode="normal" in2="BackgroundImageFix" result="effect1_dropShadow_488_888"/>
<feBlend mode="normal" in="SourceGraphic" in2="effect1_dropShadow_488_888" result="shape"/>
</filter>
</defs>
</svg>
