<svg width="107" height="103" viewBox="0 0 107 103" fill="none" xmlns="http://www.w3.org/2000/svg">
<ellipse cx="56.7935" cy="11.2856" rx="10.7957" ry="10.8467" fill="#091E80"/>
<path d="M32.027 42.2059V70.6234H80.29V42.2059C59.9688 10.4731 39.6475 28.9839 32.027 42.2059Z" fill="#091E80"/>
<path d="M67.5892 46.9419V70.6232H106.962V52.6927C106.962 48.935 105.984 45.1773 103.666 42.2198C88.2305 22.5245 73.3936 36.6543 67.5892 46.9419Z" fill="#091E80"/>
<ellipse cx="19.9614" cy="19.5802" rx="10.7957" ry="10.2086" fill="#091E80"/>
<ellipse cx="87.9103" cy="21.4944" rx="10.1606" ry="9.57059" fill="#091E80"/>
<path d="M0.275146 51.4009V70.6234H40.9176V46.1528C25.9404 22.237 10.9631 31.4627 3.15629 41.7707C1.07907 44.5134 0.275146 47.9604 0.275146 51.4009Z" fill="#091E80"/>
<path d="M55.0465 42.5498C49.9494 52.1459 31.6833 49.547 26.3738 47.048C21.2768 85.4324 45.4895 102.026 55.0465 102.526C77.9834 98.927 85.3088 62.0419 82.1231 47.048C73.2032 54.2451 57.7012 47.048 55.0465 42.5498Z" fill="#091E80"/>
<path d="M54.9054 47.6538C50.7145 55.6165 35.6957 53.46 31.3301 51.3863C27.1392 83.2373 47.0474 97.0062 54.9054 97.4209C73.7647 94.4349 79.7877 63.8281 77.1684 51.3863C69.8343 57.3584 57.0882 51.3863 54.9054 47.6538Z" fill="#E6E6E6"/>
<line y1="-1.5" x2="10.806" y2="-1.5" transform="matrix(0.807072 0.590453 -0.586826 0.809713 43.4579 75.7275)" stroke="#091E80" stroke-width="3"/>
<line y1="-1.5" x2="20.8426" y2="-1.5" transform="matrix(0.678397 -0.734696 0.731499 0.681843 52.1795 82.1079)" stroke="#091E80" stroke-width="3"/>
</svg>
